# xmcd
#
# Track frame offsets:
#	150
#	16117
#	34967
#
# Disc length: 682 seconds
#
# Revision: 3
# Processed by: cddbd v1.5.2PL0 Copyright (c) Steve Scherf et al.
# Submitted via: audiograbber 1.83.01
#
DISCID=1902a803
DTITLE=Snowpony - Sea Shanties For Spaceships CD2
DYEAR=2004
DGENRE=Electronica
TTITLE0=Naked Twister [RMX Rob Playford]
TTITLE1=Crumpled 10 [RMX Rob Playford]
TTITLE2=Chocolate (In The Sun) [RMX Rob Playford]
EXTD=YEAR: 2004
EXTT0=
EXTT1=
EXTT2=
PLAYORDER=
